<?xml version="1.0" encoding="utf-8"?>
<!-- Generator: Adobe Illustrator 16.0.0, SVG Export Plug-In . SVG Version: 6.00 Build 0)  -->
<!DOCTYPE svg PUBLIC "-//W3C//DTD SVG 1.1//EN" "http://www.w3.org/Graphics/SVG/1.1/DTD/svg11.dtd">
<svg version="1.1" id="Layer_1" xmlns="http://www.w3.org/2000/svg" xmlns:xlink="http://www.w3.org/1999/xlink" x="0px" y="0px"
	 width="530.973px" height="530.99px" viewBox="0 10.498 530.973 530.99" enable-background="new 0 10.498 530.973 530.99"
	 xml:space="preserve">
<g>
	<path fill="#1E1C16" d="M264.899,18.498c-144.797,0-262.216,117.393-262.216,262.216c0,115.854,75.134,214.143,179.321,248.817
		c13.104,2.425,17.917-5.69,17.917-12.615c0-6.251-0.242-26.909-0.356-48.821c-72.948,15.865-88.342-30.939-88.342-30.939
		c-11.929-30.305-29.114-38.365-29.114-38.365c-23.792-16.273,1.794-15.939,1.794-15.939c26.329,1.851,40.196,27.023,40.196,27.023
		c23.385,40.086,61.342,28.496,76.306,21.796c2.352-16.947,9.147-28.516,16.648-35.066C158.81,389.978,97.583,367.49,97.583,267.018
		c0-28.626,10.243-52.021,27.02-70.384c-2.723-6.606-11.698-33.276,2.541-69.396c0,0,22.02-7.044,72.127,26.883
		c20.919-5.811,43.349-8.724,65.633-8.827c22.285,0.103,44.733,3.016,65.69,8.827c50.049-33.925,72.036-26.883,72.036-26.883
		c14.271,36.12,5.295,62.789,2.573,69.396c16.814,18.362,26.986,41.755,26.986,70.384c0,100.716-61.345,122.887-119.733,129.379
		c9.406,8.139,17.783,24.097,17.783,48.559c0,35.084-0.3,63.323-0.3,71.959c0,6.979,4.721,15.158,18.011,12.581
		c104.134-34.716,179.171-132.969,179.171-248.783C527.118,135.889,409.715,18.498,264.899,18.498z"/>
	<path fill="#1E1C16" d="M102,394.981c-0.577,1.305-2.629,1.695-4.495,0.8c-1.903-0.856-2.969-2.637-2.352-3.94
		c0.563-1.341,2.616-1.713,4.517-0.817C101.572,391.882,102.656,393.675,102,394.981L102,394.981z"/>
	<path fill="#1E1C16" d="M112.621,406.825c-1.252,1.16-3.697,0.621-5.354-1.211c-1.718-1.824-2.036-4.274-0.768-5.448
		c1.289-1.157,3.66-0.617,5.378,1.211C113.591,403.227,113.927,405.653,112.621,406.825L112.621,406.825z"/>
	<path fill="#1E1C16" d="M122.96,421.93c-1.608,1.118-4.235,0.07-5.86-2.262c-1.608-2.332-1.608-5.131,0.037-6.251
		c1.625-1.118,4.215-0.109,5.86,2.204C124.601,417.989,124.601,420.788,122.96,421.93L122.96,421.93z"/>
	<path fill="#1E1C16" d="M137.123,436.52c-1.438,1.585-4.498,1.157-6.74-1.004c-2.294-2.114-2.929-5.114-1.49-6.7
		c1.458-1.588,4.537-1.142,6.792,1.005C137.964,431.934,138.654,434.952,137.123,436.52L137.123,436.52z"/>
	<path fill="#1E1C16" d="M156.664,444.992c-0.635,2.054-3.583,2.986-6.551,2.113c-2.969-0.898-4.905-3.305-4.308-5.378
		c0.615-2.069,3.58-3.042,6.57-2.108C155.335,440.515,157.278,442.901,156.664,444.992L156.664,444.992z"/>
	<path fill="#1E1C16" d="M178.125,446.56c0.073,2.164-2.445,3.957-5.564,3.995c-3.134,0.073-5.674-1.681-5.708-3.809
		c0-2.182,2.464-3.954,5.596-4.011C175.567,442.679,178.125,444.414,178.125,446.56L178.125,446.56z"/>
	<path fill="#1E1C16" d="M198.092,443.165c0.372,2.108-1.794,4.276-4.89,4.854c-3.044,0.559-5.86-0.748-6.251-2.839
		c-0.377-2.161,1.828-4.329,4.869-4.889C194.92,439.751,197.698,441.02,198.092,443.165L198.092,443.165z"/>
</g>
</svg>
